<svg width="96" height="96" viewBox="0 0 96 96" fill="none" xmlns="http://www.w3.org/2000/svg">
<path d="M44.004 40H52.004V60H44.004V40ZM44 64H52V72H44V64Z" fill="black"/>
<path d="M55.072 16.8C53.68 14.18 50.968 12.552 48 12.552C45.032 12.552 42.32 14.18 40.928 16.804L11.576 72.256C10.9247 73.4737 10.602 74.8402 10.6399 76.2206C10.6778 77.6011 11.0749 78.9478 11.792 80.128C12.4988 81.3135 13.5026 82.2942 14.7042 82.9732C15.9058 83.6523 17.2638 84.0062 18.644 84H77.356C80.188 84 82.752 82.552 84.212 80.128C84.928 78.9474 85.3244 77.6008 85.3623 76.2206C85.4001 74.8404 85.0782 73.4741 84.428 72.256L55.072 16.8ZM18.644 76L48 20.548L77.376 76H18.644Z" fill="black"/>
</svg>
