<svg width="41" height="41" viewBox="0 0 81 81" fill="none" xmlns="http://www.w3.org/2000/svg">
<path d="M16.875 70.875C15.0187 70.875 13.4291 70.2146 12.1061 68.8939C10.7854 67.5709 10.125 65.9813 10.125 64.125V16.875C10.125 15.0187 10.7854 13.4291 12.1061 12.1061C13.4291 10.7854 15.0187 10.125 16.875 10.125H43.875C44.8312 10.125 45.6334 10.4479 46.2814 11.0936C46.9271 11.7416 47.25 12.5438 47.25 13.5C47.25 14.4562 46.9271 15.2572 46.2814 15.903C45.6334 16.551 44.8312 16.875 43.875 16.875H16.875V64.125H64.125V37.125C64.125 36.1688 64.449 35.3666 65.097 34.7186C65.7428 34.0729 66.5438 33.75 67.5 33.75C68.4562 33.75 69.2572 34.0729 69.903 34.7186C70.551 35.3666 70.875 36.1688 70.875 37.125V64.125C70.875 65.9813 70.2146 67.5709 68.8939 68.8939C67.5709 70.2146 65.9813 70.875 64.125 70.875H16.875ZM60.75 30.375C59.7938 30.375 58.9928 30.051 58.347 29.403C57.699 28.7572 57.375 27.9562 57.375 27V23.625H54C53.0438 23.625 52.2428 23.3021 51.597 22.6564C50.949 22.0084 50.625 21.2062 50.625 20.25C50.625 19.2938 50.949 18.4916 51.597 17.8436C52.2428 17.1979 53.0438 16.875 54 16.875H57.375V13.5C57.375 12.5438 57.699 11.7416 58.347 11.0936C58.9928 10.4479 59.7938 10.125 60.75 10.125C61.7062 10.125 62.5072 10.4479 63.153 11.0936C63.801 11.7416 64.125 12.5438 64.125 13.5V16.875H67.5C68.4562 16.875 69.2572 17.1979 69.903 17.8436C70.551 18.4916 70.875 19.2938 70.875 20.25C70.875 21.2062 70.551 22.0084 69.903 22.6564C69.2572 23.3021 68.4562 23.625 67.5 23.625H64.125V27C64.125 27.9562 63.801 28.7572 63.153 29.403C62.5072 30.051 61.7062 30.375 60.75 30.375ZM23.625 57.375H57.375C58.05 57.375 58.5563 57.0656 58.8938 56.4469C59.2313 55.8281 59.175 55.2375 58.725 54.675L49.4437 42.2719C49.1062 41.8219 48.6563 41.5969 48.0938 41.5969C47.5312 41.5969 47.0813 41.8219 46.7438 42.2719L37.9688 54L31.725 45.6469C31.3875 45.1969 30.9375 44.9719 30.375 44.9719C29.8125 44.9719 29.3625 45.1969 29.025 45.6469L22.275 54.675C21.825 55.2375 21.7688 55.8281 22.1063 56.4469C22.4438 57.0656 22.95 57.375 23.625 57.375ZM16.875 37.125V64.125V16.875V37.125Z" fill="#808094"/>
</svg>
