<svg width="14" height="14" viewBox="0 0 14 14" fill="none" xmlns="http://www.w3.org/2000/svg">
<path d="M3.16124 8.62547L2.11823 13.141C2.08593 13.2777 2.09563 13.421 2.14605 13.5522C2.19647 13.6833 2.28528 13.7962 2.40087 13.8761C2.51646 13.956 2.65346 13.9992 2.79398 14C2.9345 14.0008 3.072 13.9593 3.18854 13.8808L7.00006 11.3402L10.8116 13.8808C10.9308 13.9599 11.0714 14.0007 11.2145 13.9975C11.3576 13.9944 11.4963 13.9475 11.612 13.8632C11.7276 13.7789 11.8147 13.6612 11.8614 13.526C11.9082 13.3907 11.9124 13.2444 11.8735 13.1067L10.5932 8.62757L13.7684 5.77072C13.8701 5.67917 13.9427 5.55982 13.9773 5.42744C14.0119 5.29506 14.0069 5.15545 13.9629 5.02588C13.919 4.89631 13.838 4.78245 13.73 4.6984C13.6221 4.61435 13.4918 4.56378 13.3554 4.55295L9.36467 4.23521L7.63776 0.413248C7.5827 0.29018 7.49319 0.185676 7.38003 0.112347C7.26687 0.0390189 7.13491 0 7.00006 0C6.86521 0 6.73325 0.0390189 6.62009 0.112347C6.50693 0.185676 6.41742 0.29018 6.36235 0.413248L4.63544 4.23521L0.644722 4.55225C0.51064 4.56287 0.382457 4.61189 0.275508 4.69344C0.16856 4.77498 0.087374 4.88561 0.0416638 5.01208C-0.00404629 5.13856 -0.0123452 5.27552 0.0177599 5.40658C0.0478651 5.53764 0.1151 5.65726 0.21142 5.75112L3.16124 8.62547V8.62547ZM5.15835 5.59785C5.2833 5.58801 5.40329 5.54474 5.50576 5.47258C5.60823 5.40043 5.6894 5.30204 5.74075 5.18773L7.00006 2.40157L8.25937 5.18773C8.31072 5.30204 8.39189 5.40043 8.49435 5.47258C8.59682 5.54474 8.71682 5.58801 8.84177 5.59785L11.6222 5.81831L9.33247 7.87871C9.13367 8.05788 9.05457 8.33362 9.12737 8.59117L10.0045 11.6601L7.38926 9.91672C7.27447 9.83969 7.13935 9.79856 7.00111 9.79856C6.86286 9.79856 6.72774 9.83969 6.61296 9.91672L3.88014 11.7385L4.61514 8.55688C4.64209 8.43987 4.63848 8.31788 4.60464 8.20267C4.57081 8.08746 4.50789 7.98288 4.42194 7.89901L2.29533 5.82601L5.15835 5.59785V5.59785Z" fill="black"/>
</svg>
