<svg width="24" height="24" viewBox="0 0 24 24" fill="none" xmlns="http://www.w3.org/2000/svg">
<path fill-rule="evenodd" clip-rule="evenodd" d="M12 1.5C12.3568 1.5 12.6866 1.69015 12.8654 1.99896L23.8654 20.999C24.0445 21.3083 24.0449 21.6898 23.8663 21.9995C23.6878 22.3092 23.3575 22.5 23 22.5H1C0.642521 22.5 0.31223 22.3092 0.133676 21.9995C-0.0448788 21.6898 -0.0445365 21.3083 0.134574 20.999L11.1346 1.99896C11.3134 1.69015 11.6432 1.5 12 1.5ZM2.73445 20.5H21.2656L12 4.49586L2.73445 20.5Z" fill="black"/>
<path fill-rule="evenodd" clip-rule="evenodd" d="M11.9992 8.5C12.5515 8.49956 12.9996 8.94692 13 9.4992L13.004 14.4992C13.0044 15.0515 12.5571 15.4996 12.0048 15.5C11.4525 15.5004 11.0044 15.0531 11.004 14.5008L11 9.5008C10.9996 8.94852 11.4469 8.50044 11.9992 8.5ZM12 16.5C12.5523 16.5 13 16.9477 13 17.5V18C13 18.5523 12.5523 19 12 19C11.4477 19 11 18.5523 11 18V17.5C11 16.9477 11.4477 16.5 12 16.5Z" fill="black"/>
</svg>
