<svg width="24" height="24" viewBox="0 0 24 24" fill="none" xmlns="http://www.w3.org/2000/svg">
<path fill-rule="evenodd" clip-rule="evenodd" d="M16.6402 8.73178C17.0645 9.08535 17.1218 9.71591 16.7682 10.1402L11.7682 16.1402C11.5884 16.356 11.326 16.4862 11.0453 16.499C10.7646 16.5117 10.4916 16.4058 10.2929 16.2071L7.29289 13.2071C6.90237 12.8166 6.90237 12.1834 7.29289 11.7929C7.68342 11.4024 8.31658 11.4024 8.70711 11.7929L10.9328 14.0186L15.2318 8.85982C15.5853 8.43554 16.2159 8.37822 16.6402 8.73178Z" fill="black"/>
<path fill-rule="evenodd" clip-rule="evenodd" d="M12 3C7.02944 3 3 7.02944 3 12C3 16.9706 7.02944 21 12 21C16.9706 21 21 16.9706 21 12C21 7.02944 16.9706 3 12 3ZM1 12C1 5.92487 5.92487 1 12 1C18.0751 1 23 5.92487 23 12C23 18.0751 18.0751 23 12 23C5.92487 23 1 18.0751 1 12Z" fill="black"/>
</svg>
