<svg width="24" height="24" viewBox="0 0 24 24" fill="none" xmlns="http://www.w3.org/2000/svg">
<path d="M8.10938 16.75C8.15104 16.6875 8.13542 16.6198 8.0625 16.5469C7.96875 16.474 7.89583 16.4635 7.84375 16.5156C7.80208 16.5781 7.81771 16.6458 7.89062 16.7188C7.98438 16.7917 8.05729 16.8021 8.10938 16.75ZM7.67188 16.1094C7.61979 16.0365 7.55729 16.0156 7.48438 16.0469C7.42188 16.0885 7.42188 16.151 7.48438 16.2344C7.55729 16.3177 7.61979 16.3438 7.67188 16.3125C7.73438 16.2708 7.73438 16.2031 7.67188 16.1094ZM7.03125 15.4844C7.05208 15.4427 7.02604 15.401 6.95312 15.3594C6.88021 15.3385 6.83854 15.349 6.82812 15.3906C6.79688 15.4427 6.81771 15.4844 6.89062 15.5156C6.97396 15.5365 7.02083 15.526 7.03125 15.4844ZM7.35938 15.8438C7.38021 15.8333 7.38802 15.8099 7.38281 15.7734C7.3776 15.737 7.35938 15.7083 7.32812 15.6875C7.26562 15.6146 7.21354 15.599 7.17188 15.6406C7.13021 15.6823 7.13542 15.7396 7.1875 15.8125C7.25 15.875 7.30729 15.8854 7.35938 15.8438ZM8.70312 17.0156C8.72396 16.9427 8.67708 16.8854 8.5625 16.8438C8.46875 16.8125 8.40104 16.8333 8.35938 16.9062C8.33854 16.9792 8.38542 17.0365 8.5 17.0781C8.59375 17.1094 8.66146 17.0885 8.70312 17.0156ZM9.35938 17.0625C9.35938 16.9792 9.29688 16.9375 9.17188 16.9375C9.06771 16.9375 9.01562 16.9792 9.01562 17.0625C9.01562 17.1458 9.07292 17.1875 9.1875 17.1875C9.30208 17.1875 9.35938 17.1458 9.35938 17.0625ZM9.96875 16.9531C9.94792 16.8802 9.88021 16.8542 9.76562 16.875C9.65104 16.8958 9.60417 16.9427 9.625 17.0156C9.64583 17.099 9.70833 17.1302 9.8125 17.1094C9.91667 17.0885 9.96875 17.0365 9.96875 16.9531ZM20 12C20 9.79167 19.2188 7.90625 17.6562 6.34375C16.0938 4.78125 14.2083 4 12 4C9.79167 4 7.90625 4.78125 6.34375 6.34375C4.78125 7.90625 4 9.79167 4 12C4 13.7396 4.51042 15.3047 5.53125 16.6953C6.55208 18.0859 7.86458 19.0521 9.46875 19.5938C9.65625 19.625 9.79427 19.599 9.88281 19.5156C9.97135 19.4323 10.0156 19.3281 10.0156 19.2031C10.0156 18.6615 10.0104 18.1667 10 17.7188C9.9375 17.7292 9.85677 17.7422 9.75781 17.7578C9.65885 17.7734 9.47396 17.7839 9.20312 17.7891C8.93229 17.7943 8.68229 17.7734 8.45312 17.7266C8.22396 17.6797 7.9974 17.5755 7.77344 17.4141C7.54948 17.2526 7.39583 17.0365 7.3125 16.7656C7.07292 16.151 6.77604 15.7656 6.42188 15.6094C6.40104 15.599 6.3776 15.5807 6.35156 15.5547L6.22656 15.4297L6.11719 15.2812L6.17969 15.1641L6.48438 15.1094C6.54688 15.1094 6.625 15.1198 6.71875 15.1406C6.8125 15.1615 6.96875 15.2422 7.1875 15.3828C7.40625 15.5234 7.57812 15.7083 7.70312 15.9375C7.86979 16.2292 8.0651 16.4479 8.28906 16.5938C8.51302 16.7396 8.73958 16.8125 8.96875 16.8125C9.19792 16.8125 9.39583 16.7943 9.5625 16.7578C9.72917 16.7214 9.88542 16.6719 10.0312 16.6094C10.1042 16.1198 10.276 15.7604 10.5469 15.5312C10.0365 15.4688 9.58854 15.3724 9.20312 15.2422C8.81771 15.112 8.4375 14.9089 8.0625 14.6328C7.6875 14.3568 7.39844 13.9609 7.19531 13.4453C6.99219 12.9297 6.89062 12.3073 6.89062 11.5781C6.89062 10.7552 7.16667 10.0417 7.71875 9.4375C7.46875 8.79167 7.49479 8.08333 7.79688 7.3125C7.99479 7.25 8.27865 7.28906 8.64844 7.42969C9.01823 7.57031 9.33333 7.72396 9.59375 7.89062L10 8.14062C10.6042 7.96354 11.2708 7.875 12 7.875C12.7292 7.875 13.3958 7.96354 14 8.14062C14.1146 8.06771 14.263 7.97396 14.4453 7.85938C14.6276 7.74479 14.9167 7.60938 15.3125 7.45312C15.7083 7.29688 16.0052 7.25 16.2031 7.3125C16.5052 8.08333 16.5312 8.79167 16.2812 9.4375C16.8333 10.0417 17.1094 10.7552 17.1094 11.5781C17.1094 12.1719 17.0365 12.6953 16.8906 13.1484C16.7448 13.6016 16.5599 13.9661 16.3359 14.2422C16.112 14.5182 15.8333 14.75 15.5 14.9375C15.1667 15.125 14.8411 15.2604 14.5234 15.3438C14.2057 15.4271 13.849 15.4896 13.4531 15.5312C13.8177 15.8542 14 16.349 14 17.0156C14 17.4323 13.9974 17.8958 13.9922 18.4062C13.987 18.9167 13.9844 19.1823 13.9844 19.2031C13.9844 19.3281 14.0286 19.4323 14.1172 19.5156C14.2057 19.599 14.3438 19.625 14.5312 19.5938C16.1354 19.0521 17.4479 18.0859 18.4688 16.6953C19.4896 15.3047 20 13.7396 20 12ZM24 4.5V19.5C24 20.7396 23.5599 21.7995 22.6797 22.6797C21.7995 23.5599 20.7396 24 19.5 24H4.5C3.26042 24 2.20052 23.5599 1.32031 22.6797C0.440104 21.7995 0 20.7396 0 19.5V4.5C0 3.26042 0.440104 2.20052 1.32031 1.32031C2.20052 0.440104 3.26042 0 4.5 0H19.5C20.7396 0 21.7995 0.440104 22.6797 1.32031C23.5599 2.20052 24 3.26042 24 4.5Z" fill="black"/>
</svg>
