<svg width="20" height="20" viewBox="0 0 20 20" fill="none" xmlns="http://www.w3.org/2000/svg">
<path d="M4.51605 12.3221L3.02604 18.7729C2.9799 18.9682 2.99376 19.1729 3.06579 19.3602C3.13782 19.5476 3.26469 19.7088 3.42982 19.823C3.59494 19.9371 3.79066 19.9988 3.9914 20C4.19214 20.0012 4.38858 19.9418 4.55505 19.8297L10.0001 16.2003L15.4451 19.8297C15.6155 19.9427 15.8163 20.0009 16.0208 19.9965C16.2252 19.992 16.4233 19.925 16.5885 19.8046C16.7537 19.6842 16.8781 19.516 16.9449 19.3228C17.0117 19.1296 17.0177 18.9206 16.9621 18.7239L15.1331 12.3251L19.6691 8.24388C19.8144 8.1131 19.9182 7.9426 19.9676 7.75349C20.017 7.56437 20.0098 7.36493 19.947 7.17983C19.8843 6.99472 19.7686 6.83208 19.6143 6.712C19.4601 6.59192 19.274 6.51968 19.0791 6.50422L13.3781 6.0503L10.9111 0.590354C10.8324 0.414543 10.7046 0.265251 10.5429 0.160496C10.3812 0.0557413 10.1927 0 10.0001 0C9.80745 0 9.61892 0.0557413 9.45727 0.160496C9.29562 0.265251 9.16774 0.414543 9.08908 0.590354L6.62206 6.0503L0.921032 6.50322C0.729486 6.51839 0.546367 6.58841 0.393584 6.70491C0.2408 6.82141 0.12482 6.97945 0.0595198 7.16012C-0.00578041 7.34079 -0.017636 7.53645 0.0253713 7.72368C0.0683787 7.91092 0.164428 8.0818 0.302028 8.21589L4.51605 12.3221V12.3221ZM7.36907 7.99693C7.54756 7.98287 7.71899 7.92106 7.86537 7.81798C8.01176 7.7149 8.12771 7.57434 8.20107 7.41104L10.0001 3.43081L11.7991 7.41104C11.8725 7.57434 11.9884 7.7149 12.1348 7.81798C12.2812 7.92106 12.4526 7.98287 12.6311 7.99693L16.6031 8.31187L13.3321 11.2553C13.0481 11.5113 12.9351 11.9052 13.0391 12.2731L14.2921 16.6573L10.5561 14.1667C10.3921 14.0567 10.1991 13.9979 10.0016 13.9979C9.80409 13.9979 9.61106 14.0567 9.44708 14.1667L5.54306 16.7692L6.59306 12.2241C6.63156 12.0569 6.6264 11.8827 6.57806 11.7181C6.52972 11.5535 6.43984 11.4041 6.31706 11.2843L3.27905 8.32287L7.36907 7.99693V7.99693Z" fill="black"/>
</svg>
